G04*
G04 #@! TF.GenerationSoftware,Altium Limited,Altium Designer,26.6.0 (10)*
G04*
G04 Layer_Color=65535*
G04 Board_Origin=0|0*
%FSLAX44Y44*%
%MOMM*%
G71*
G04*
G04 #@! TF.SameCoordinates,38BCCB9D-3AAA-41B6-8228-12D48D1C517A*
G04*
G04*
G04 #@! TF.FilePolarity,Positive*
G04*
G01*
G75*
%ADD10C,0.2500*%
%ADD11C,0.2000*%
%ADD12C,0.6000*%
%ADD13C,0.1500*%
%ADD14C,0.2540*%
D10*
X529520Y928370D02*
G03*
X529520Y928370I-1250J0D01*
G01*
X977250Y947450D02*
G03*
X977250Y947450I-1250J0D01*
G01*
X1383540Y500740D02*
G03*
X1383540Y500740I-1250J0D01*
G01*
X1254000Y502010D02*
G03*
X1254000Y502010I-1250J0D01*
G01*
X919660Y907740D02*
G03*
X919660Y907740I-1250J0D01*
G01*
X1500380Y500740D02*
G03*
X1500380Y500740I-1250J0D01*
G01*
X971830Y414020D02*
G03*
X971830Y414020I-1250J0D01*
G01*
X1635000Y502010D02*
G03*
X1635000Y502010I-1250J0D01*
G01*
D11*
X1738590Y1125190D02*
G03*
X1708270Y1125295I-15200J-11400D01*
G01*
X1708270Y1102284D02*
G03*
X1738590Y1102390I15120J11506D01*
G01*
X1630640Y1117570D02*
G03*
X1600320Y1117675I-15200J-11400D01*
G01*
X1600320Y1094664D02*
G03*
X1630640Y1094770I15120J11506D01*
G01*
X1474430Y1117570D02*
G03*
X1444110Y1117675I-15200J-11400D01*
G01*
X1444110Y1094664D02*
G03*
X1474430Y1094770I15120J11506D01*
G01*
X1363940Y1117570D02*
G03*
X1333620Y1117675I-15200J-11400D01*
G01*
X1333620Y1094664D02*
G03*
X1363940Y1094770I15120J11506D01*
G01*
X393220Y815120D02*
X523720D01*
Y1219420D01*
X393220D02*
X523720D01*
X393220Y815120D02*
Y1219420D01*
X1668054Y1085950D02*
X1669506D01*
X1668054Y1098450D02*
X1669506D01*
X1738590Y1125190D02*
X1738630Y1124640D01*
X1738590Y1102390D02*
X1738630Y1102940D01*
X1690490Y1113790D02*
X1700490D01*
X1695490Y1108790D02*
Y1118790D01*
X576236Y642720D02*
X577687D01*
X576236Y655220D02*
X577687D01*
X640624Y642720D02*
X642076D01*
X640624Y655220D02*
X642076D01*
X410110Y539024D02*
Y540476D01*
X397610Y539024D02*
Y540476D01*
X522514Y528420D02*
X523966D01*
X522514Y540920D02*
X523966D01*
X696504Y642720D02*
X697956D01*
X696504Y655220D02*
X697956D01*
X752384Y642720D02*
X753836D01*
X752384Y655220D02*
X753836D01*
X578394Y528420D02*
X579846D01*
X578394Y540920D02*
X579846D01*
X685074Y528420D02*
X686526D01*
X685074Y540920D02*
X686526D01*
X983000Y954950D02*
X985500D01*
X983000Y975450D02*
X985500D01*
X1305040Y489240D02*
X1357040D01*
X1305040Y557240D02*
X1367040D01*
X1175500Y490510D02*
X1227500D01*
X1175500Y558510D02*
X1237500D01*
X932910Y779240D02*
Y902240D01*
X1055910Y779240D02*
Y902240D01*
X932910D02*
X1055910D01*
X932910Y779240D02*
X1055910D01*
X1421880Y489240D02*
X1473880D01*
X1421880Y557240D02*
X1483880D01*
X987580Y424270D02*
Y437920D01*
Y313920D02*
Y327570D01*
Y313920D02*
X1054580D01*
Y424270D02*
Y437920D01*
Y313920D02*
Y327570D01*
X987580Y437920D02*
X1054580D01*
X1556500Y490510D02*
X1608500D01*
X1556500Y558510D02*
X1618500D01*
X1587540Y1101170D02*
Y1111170D01*
X1582540Y1106170D02*
X1592540D01*
X1630640Y1117570D02*
X1630680Y1117020D01*
X1630640Y1094770D02*
X1630680Y1095320D01*
X1552484Y1088490D02*
X1553936D01*
X1552484Y1100990D02*
X1553936D01*
X1474430Y1117570D02*
X1474470Y1117020D01*
X1474430Y1094770D02*
X1474470Y1095320D01*
X1426330Y1106170D02*
X1436330D01*
X1431330Y1101170D02*
Y1111170D01*
X1395004Y1088490D02*
X1396456D01*
X1395004Y1100990D02*
X1396456D01*
X1320840Y1101170D02*
Y1111170D01*
X1315840Y1106170D02*
X1325840D01*
X1363940Y1117570D02*
X1363980Y1117020D01*
X1363940Y1094770D02*
X1363980Y1095320D01*
X1285784Y1088490D02*
X1287236D01*
X1285784Y1100990D02*
X1287236D01*
D12*
X945910Y892240D02*
G03*
X945910Y892240I-3000J0D01*
G01*
D13*
X1137570Y891960D02*
X1143570D01*
X1137570Y880960D02*
X1143570D01*
X845350Y971970D02*
X851350D01*
X845350Y960970D02*
X851350D01*
X1137450Y960540D02*
X1143450D01*
X1137450Y949540D02*
X1143450D01*
X847900Y828460D02*
X853900D01*
X847900Y817460D02*
X853900D01*
X846630Y903390D02*
X852630D01*
X846630Y892390D02*
X852630D01*
X850440Y762420D02*
X856440D01*
X850440Y751420D02*
X856440D01*
X1503680Y1088930D02*
Y1092930D01*
D14*
X393700Y1244341D02*
Y1229106D01*
X401317D01*
X403857Y1231645D01*
Y1241802D01*
X401317Y1244341D01*
X393700D01*
X419092Y1241802D02*
X416553Y1244341D01*
X411474D01*
X408935Y1241802D01*
Y1239263D01*
X411474Y1236723D01*
X416553D01*
X419092Y1234184D01*
Y1231645D01*
X416553Y1229106D01*
X411474D01*
X408935Y1231645D01*
X434327Y1244341D02*
X424170D01*
Y1236723D01*
X429249Y1239263D01*
X431788D01*
X434327Y1236723D01*
Y1231645D01*
X431788Y1229106D01*
X426709D01*
X424170Y1231645D01*
X1656842Y1108710D02*
Y1123945D01*
X1664460D01*
X1666999Y1121406D01*
Y1116328D01*
X1664460Y1113788D01*
X1656842D01*
X1661920D02*
X1666999Y1108710D01*
X1672077Y1123945D02*
X1682234D01*
Y1121406D01*
X1672077Y1111249D01*
Y1108710D01*
X1692148Y1156965D02*
Y1141730D01*
X1699765D01*
X1702305Y1144269D01*
Y1154426D01*
X1699765Y1156965D01*
X1692148D01*
X1717540Y1154426D02*
X1715001Y1156965D01*
X1709922D01*
X1707383Y1154426D01*
Y1151887D01*
X1709922Y1149348D01*
X1715001D01*
X1717540Y1146808D01*
Y1144269D01*
X1715001Y1141730D01*
X1709922D01*
X1707383Y1144269D01*
X1730236Y1141730D02*
Y1156965D01*
X1722618Y1149348D01*
X1732775D01*
X729488Y545592D02*
Y560827D01*
X737105D01*
X739645Y558288D01*
Y553209D01*
X737105Y550670D01*
X729488D01*
X734566D02*
X739645Y545592D01*
X744723D02*
X749801D01*
X747262D01*
Y560827D01*
X744723Y558288D01*
X757419D02*
X759958Y560827D01*
X765036D01*
X767576Y558288D01*
Y548131D01*
X765036Y545592D01*
X759958D01*
X757419Y548131D01*
Y558288D01*
X1059942Y498602D02*
Y513837D01*
X1067560D01*
X1070099Y511298D01*
Y506219D01*
X1067560Y503680D01*
X1059942D01*
X1065020D02*
X1070099Y498602D01*
X1075177Y501141D02*
X1077716Y498602D01*
X1082795D01*
X1085334Y501141D01*
Y511298D01*
X1082795Y513837D01*
X1077716D01*
X1075177Y511298D01*
Y508759D01*
X1077716Y506219D01*
X1085334D01*
X564896Y665480D02*
Y680715D01*
X572514D01*
X575053Y678176D01*
Y673098D01*
X572514Y670558D01*
X564896D01*
X569974D02*
X575053Y665480D01*
X580131D02*
X585209D01*
X582670D01*
Y680715D01*
X580131Y678176D01*
X602984Y680715D02*
X597905Y678176D01*
X592827Y673098D01*
Y668019D01*
X595366Y665480D01*
X600444D01*
X602984Y668019D01*
Y670558D01*
X600444Y673098D01*
X592827D01*
X629285Y665607D02*
Y680842D01*
X636903D01*
X639442Y678303D01*
Y673224D01*
X636903Y670685D01*
X629285D01*
X634363D02*
X639442Y665607D01*
X644520D02*
X649598D01*
X647059D01*
Y680842D01*
X644520Y678303D01*
X667373Y680842D02*
X657216D01*
Y673224D01*
X662294Y675764D01*
X664834D01*
X667373Y673224D01*
Y668146D01*
X664834Y665607D01*
X659755D01*
X657216Y668146D01*
X397510Y561848D02*
Y577083D01*
X405127D01*
X407667Y574544D01*
Y569465D01*
X405127Y566926D01*
X397510D01*
X402588D02*
X407667Y561848D01*
X422902D02*
X412745D01*
X422902Y572005D01*
Y574544D01*
X420363Y577083D01*
X415284D01*
X412745Y574544D01*
X427980D02*
X430519Y577083D01*
X435598D01*
X438137Y574544D01*
Y564387D01*
X435598Y561848D01*
X430519D01*
X427980Y564387D01*
Y574544D01*
X455168Y545592D02*
Y560827D01*
X462785D01*
X465325Y558288D01*
Y553209D01*
X462785Y550670D01*
X455168D01*
X460246D02*
X465325Y545592D01*
X470403D02*
X475481D01*
X472942D01*
Y560827D01*
X470403Y558288D01*
X493256Y545592D02*
X483099D01*
X493256Y555749D01*
Y558288D01*
X490717Y560827D01*
X485638D01*
X483099Y558288D01*
X511302Y551180D02*
Y566415D01*
X518919D01*
X521459Y563876D01*
Y558797D01*
X518919Y556258D01*
X511302D01*
X516380D02*
X521459Y551180D01*
X526537D02*
X531615D01*
X529076D01*
Y566415D01*
X526537Y563876D01*
X539233Y553719D02*
X541772Y551180D01*
X546851D01*
X549390Y553719D01*
Y563876D01*
X546851Y566415D01*
X541772D01*
X539233Y563876D01*
Y561337D01*
X541772Y558797D01*
X549390D01*
X685165Y665607D02*
Y680842D01*
X692783D01*
X695322Y678303D01*
Y673224D01*
X692783Y670685D01*
X685165D01*
X690243D02*
X695322Y665607D01*
X700400D02*
X705478D01*
X702939D01*
Y680842D01*
X700400Y678303D01*
X720714Y665607D02*
Y680842D01*
X713096Y673224D01*
X723253D01*
X741045Y665607D02*
Y680842D01*
X748662D01*
X751202Y678303D01*
Y673224D01*
X748662Y670685D01*
X741045D01*
X746123D02*
X751202Y665607D01*
X756280D02*
X761358D01*
X758819D01*
Y680842D01*
X756280Y678303D01*
X768976D02*
X771515Y680842D01*
X776593D01*
X779133Y678303D01*
Y675764D01*
X776593Y673224D01*
X774054D01*
X776593D01*
X779133Y670685D01*
Y668146D01*
X776593Y665607D01*
X771515D01*
X768976Y668146D01*
X567182Y551180D02*
Y566415D01*
X574799D01*
X577339Y563876D01*
Y558797D01*
X574799Y556258D01*
X567182D01*
X572260D02*
X577339Y551180D01*
X582417D02*
X587495D01*
X584956D01*
Y566415D01*
X582417Y563876D01*
X595113D02*
X597652Y566415D01*
X602730D01*
X605270Y563876D01*
Y561337D01*
X602730Y558797D01*
X605270Y556258D01*
Y553719D01*
X602730Y551180D01*
X597652D01*
X595113Y553719D01*
Y556258D01*
X597652Y558797D01*
X595113Y561337D01*
Y563876D01*
X597652Y558797D02*
X602730D01*
X622808Y545592D02*
Y560827D01*
X630425D01*
X632965Y558288D01*
Y553209D01*
X630425Y550670D01*
X622808D01*
X627886D02*
X632965Y545592D01*
X638043D02*
X643121D01*
X640582D01*
Y560827D01*
X638043Y558288D01*
X650739Y545592D02*
X655817D01*
X653278D01*
Y560827D01*
X650739Y558288D01*
X673862Y551180D02*
Y566415D01*
X681479D01*
X684019Y563876D01*
Y558797D01*
X681479Y556258D01*
X673862D01*
X678940D02*
X684019Y551180D01*
X689097D02*
X694175D01*
X691636D01*
Y566415D01*
X689097Y563876D01*
X701793Y566415D02*
X711950D01*
Y563876D01*
X701793Y553719D01*
Y551180D01*
X948055Y654685D02*
Y669920D01*
X955673D01*
X958212Y667381D01*
Y662302D01*
X955673Y659763D01*
X948055D01*
X953133D02*
X958212Y654685D01*
X973447Y669920D02*
X963290D01*
Y662302D01*
X968368Y664842D01*
X970908D01*
X973447Y662302D01*
Y657224D01*
X970908Y654685D01*
X965829D01*
X963290Y657224D01*
X1095375Y654685D02*
Y669920D01*
X1102992D01*
X1105532Y667381D01*
Y662302D01*
X1102992Y659763D01*
X1095375D01*
X1100453D02*
X1105532Y654685D01*
X1110610Y667381D02*
X1113149Y669920D01*
X1118228D01*
X1120767Y667381D01*
Y664842D01*
X1118228Y662302D01*
X1115688D01*
X1118228D01*
X1120767Y659763D01*
Y657224D01*
X1118228Y654685D01*
X1113149D01*
X1110610Y657224D01*
X1368552Y661162D02*
Y676397D01*
X1376169D01*
X1378709Y673858D01*
Y668780D01*
X1376169Y666240D01*
X1368552D01*
X1373630D02*
X1378709Y661162D01*
X1393944D02*
X1383787D01*
X1393944Y671319D01*
Y673858D01*
X1391405Y676397D01*
X1386326D01*
X1383787Y673858D01*
X1218692Y653542D02*
Y668777D01*
X1226310D01*
X1228849Y666238D01*
Y661160D01*
X1226310Y658620D01*
X1218692D01*
X1223770D02*
X1228849Y653542D01*
X1233927D02*
X1239005D01*
X1236466D01*
Y668777D01*
X1233927Y666238D01*
X972058Y1002025D02*
Y999486D01*
X977136Y994408D01*
X982215Y999486D01*
Y1002025D01*
X977136Y994408D02*
Y986790D01*
X987293D02*
X992371D01*
X989832D01*
Y1002025D01*
X987293Y999486D01*
X1137917Y915412D02*
X1135378Y917951D01*
X1130299D01*
X1127760Y915412D01*
Y905255D01*
X1130299Y902716D01*
X1135378D01*
X1137917Y905255D01*
X1153152Y902716D02*
X1142995D01*
X1153152Y912873D01*
Y915412D01*
X1150613Y917951D01*
X1145534D01*
X1142995Y915412D01*
X845817Y995422D02*
X843278Y997961D01*
X838199D01*
X835660Y995422D01*
Y985265D01*
X838199Y982726D01*
X843278D01*
X845817Y985265D01*
X858513Y982726D02*
Y997961D01*
X850895Y990343D01*
X861052D01*
X1306573Y579624D02*
X1304034Y582163D01*
X1298955D01*
X1296416Y579624D01*
Y577085D01*
X1298955Y574546D01*
X1304034D01*
X1306573Y572006D01*
Y569467D01*
X1304034Y566928D01*
X1298955D01*
X1296416Y569467D01*
X1311651Y582163D02*
Y566928D01*
X1316729Y572006D01*
X1321808Y566928D01*
Y582163D01*
X1337043Y566928D02*
X1326886D01*
X1337043Y577085D01*
Y579624D01*
X1334504Y582163D01*
X1329425D01*
X1326886Y579624D01*
X1177033Y580894D02*
X1174493Y583433D01*
X1169415D01*
X1166876Y580894D01*
Y578355D01*
X1169415Y575816D01*
X1174493D01*
X1177033Y573276D01*
Y570737D01*
X1174493Y568198D01*
X1169415D01*
X1166876Y570737D01*
X1182111Y583433D02*
Y568198D01*
X1187189Y573276D01*
X1192268Y568198D01*
Y583433D01*
X1197346Y568198D02*
X1202424D01*
X1199885D01*
Y583433D01*
X1197346Y580894D01*
X1137917Y983992D02*
X1135378Y986531D01*
X1130299D01*
X1127760Y983992D01*
Y973835D01*
X1130299Y971296D01*
X1135378D01*
X1137917Y973835D01*
X1142995Y983992D02*
X1145534Y986531D01*
X1150613D01*
X1153152Y983992D01*
Y981453D01*
X1150613Y978913D01*
X1148073D01*
X1150613D01*
X1153152Y976374D01*
Y973835D01*
X1150613Y971296D01*
X1145534D01*
X1142995Y973835D01*
X1141473Y828798D02*
X1138933Y831337D01*
X1133855D01*
X1131316Y828798D01*
Y818641D01*
X1133855Y816102D01*
X1138933D01*
X1141473Y818641D01*
X1146551Y816102D02*
X1151629D01*
X1149090D01*
Y831337D01*
X1146551Y828798D01*
X905256Y955289D02*
Y942593D01*
X907795Y940054D01*
X912874D01*
X915413Y942593D01*
Y955289D01*
X920491Y940054D02*
X925569D01*
X923030D01*
Y955289D01*
X920491Y952750D01*
X1423413Y579624D02*
X1420874Y582163D01*
X1415795D01*
X1413256Y579624D01*
Y577085D01*
X1415795Y574546D01*
X1420874D01*
X1423413Y572006D01*
Y569467D01*
X1420874Y566928D01*
X1415795D01*
X1413256Y569467D01*
X1428491Y582163D02*
Y566928D01*
X1433569Y572006D01*
X1438648Y566928D01*
Y582163D01*
X1443726Y579624D02*
X1446265Y582163D01*
X1451344D01*
X1453883Y579624D01*
Y577085D01*
X1451344Y574546D01*
X1448804D01*
X1451344D01*
X1453883Y572006D01*
Y569467D01*
X1451344Y566928D01*
X1446265D01*
X1443726Y569467D01*
X980691Y460244D02*
X978151Y462783D01*
X973073D01*
X970534Y460244D01*
Y457705D01*
X973073Y455165D01*
X978151D01*
X980691Y452626D01*
Y450087D01*
X978151Y447548D01*
X973073D01*
X970534Y450087D01*
X985769Y462783D02*
Y447548D01*
X990847Y452626D01*
X995926Y447548D01*
Y462783D01*
X1011161D02*
X1001004D01*
Y455165D01*
X1006083Y457705D01*
X1008622D01*
X1011161Y455165D01*
Y450087D01*
X1008622Y447548D01*
X1003543D01*
X1001004Y450087D01*
X848357Y851912D02*
X845817Y854451D01*
X840739D01*
X838200Y851912D01*
Y841755D01*
X840739Y839216D01*
X845817D01*
X848357Y841755D01*
X863592Y854451D02*
X858513Y851912D01*
X853435Y846833D01*
Y841755D01*
X855974Y839216D01*
X861053D01*
X863592Y841755D01*
Y844294D01*
X861053Y846833D01*
X853435D01*
X847087Y926842D02*
X844548Y929381D01*
X839469D01*
X836930Y926842D01*
Y916685D01*
X839469Y914146D01*
X844548D01*
X847087Y916685D01*
X862322Y929381D02*
X852165D01*
Y921764D01*
X857243Y924303D01*
X859783D01*
X862322Y921764D01*
Y916685D01*
X859783Y914146D01*
X854704D01*
X852165Y916685D01*
X850897Y785872D02*
X848357Y788411D01*
X843279D01*
X840740Y785872D01*
Y775715D01*
X843279Y773176D01*
X848357D01*
X850897Y775715D01*
X855975Y788411D02*
X866132D01*
Y785872D01*
X855975Y775715D01*
Y773176D01*
X1558033Y580894D02*
X1555493Y583433D01*
X1550415D01*
X1547876Y580894D01*
Y578355D01*
X1550415Y575816D01*
X1555493D01*
X1558033Y573276D01*
Y570737D01*
X1555493Y568198D01*
X1550415D01*
X1547876Y570737D01*
X1563111Y583433D02*
Y568198D01*
X1568189Y573276D01*
X1573268Y568198D01*
Y583433D01*
X1585964Y568198D02*
Y583433D01*
X1578346Y575816D01*
X1588503D01*
X1584198Y1149345D02*
Y1134110D01*
X1591815D01*
X1594355Y1136649D01*
Y1146806D01*
X1591815Y1149345D01*
X1584198D01*
X1609590Y1146806D02*
X1607051Y1149345D01*
X1601972D01*
X1599433Y1146806D01*
Y1144267D01*
X1601972Y1141728D01*
X1607051D01*
X1609590Y1139188D01*
Y1136649D01*
X1607051Y1134110D01*
X1601972D01*
X1599433Y1136649D01*
X1614668Y1146806D02*
X1617207Y1149345D01*
X1622286D01*
X1624825Y1146806D01*
Y1144267D01*
X1622286Y1141728D01*
X1619747D01*
X1622286D01*
X1624825Y1139188D01*
Y1136649D01*
X1622286Y1134110D01*
X1617207D01*
X1614668Y1136649D01*
X1541272Y1111250D02*
Y1126485D01*
X1548889D01*
X1551429Y1123946D01*
Y1118867D01*
X1548889Y1116328D01*
X1541272D01*
X1546350D02*
X1551429Y1111250D01*
X1566664Y1126485D02*
X1561585Y1123946D01*
X1556507Y1118867D01*
Y1113789D01*
X1559046Y1111250D01*
X1564125D01*
X1566664Y1113789D01*
Y1116328D01*
X1564125Y1118867D01*
X1556507D01*
X1507233Y1116072D02*
X1504693Y1118611D01*
X1499615D01*
X1497076Y1116072D01*
Y1105915D01*
X1499615Y1103376D01*
X1504693D01*
X1507233Y1105915D01*
X1512311Y1116072D02*
X1514850Y1118611D01*
X1519929D01*
X1522468Y1116072D01*
Y1113533D01*
X1519929Y1110993D01*
X1522468Y1108454D01*
Y1105915D01*
X1519929Y1103376D01*
X1514850D01*
X1512311Y1105915D01*
Y1108454D01*
X1514850Y1110993D01*
X1512311Y1113533D01*
Y1116072D01*
X1514850Y1110993D02*
X1519929D01*
X1427988Y1149345D02*
Y1134110D01*
X1435605D01*
X1438145Y1136649D01*
Y1146806D01*
X1435605Y1149345D01*
X1427988D01*
X1453380Y1146806D02*
X1450841Y1149345D01*
X1445762D01*
X1443223Y1146806D01*
Y1144267D01*
X1445762Y1141728D01*
X1450841D01*
X1453380Y1139188D01*
Y1136649D01*
X1450841Y1134110D01*
X1445762D01*
X1443223Y1136649D01*
X1458458Y1134110D02*
X1463537D01*
X1460997D01*
Y1149345D01*
X1458458Y1146806D01*
X1383792Y1111250D02*
Y1126485D01*
X1391409D01*
X1393949Y1123946D01*
Y1118867D01*
X1391409Y1116328D01*
X1383792D01*
X1388870D02*
X1393949Y1111250D01*
X1399027Y1123946D02*
X1401566Y1126485D01*
X1406645D01*
X1409184Y1123946D01*
Y1121407D01*
X1406645Y1118867D01*
X1409184Y1116328D01*
Y1113789D01*
X1406645Y1111250D01*
X1401566D01*
X1399027Y1113789D01*
Y1116328D01*
X1401566Y1118867D01*
X1399027Y1121407D01*
Y1123946D01*
X1401566Y1118867D02*
X1406645D01*
X1317498Y1149345D02*
Y1134110D01*
X1325116D01*
X1327655Y1136649D01*
Y1146806D01*
X1325116Y1149345D01*
X1317498D01*
X1342890Y1146806D02*
X1340351Y1149345D01*
X1335272D01*
X1332733Y1146806D01*
Y1144267D01*
X1335272Y1141728D01*
X1340351D01*
X1342890Y1139188D01*
Y1136649D01*
X1340351Y1134110D01*
X1335272D01*
X1332733Y1136649D01*
X1358125Y1134110D02*
X1347968D01*
X1358125Y1144267D01*
Y1146806D01*
X1355586Y1149345D01*
X1350507D01*
X1347968Y1146806D01*
X1274572Y1111250D02*
Y1126485D01*
X1282189D01*
X1284729Y1123946D01*
Y1118867D01*
X1282189Y1116328D01*
X1274572D01*
X1279650D02*
X1284729Y1111250D01*
X1297425D02*
Y1126485D01*
X1289807Y1118867D01*
X1299964D01*
M02*
