G04*
G04 #@! TF.GenerationSoftware,Altium Limited,Altium Designer,26.6.0 (10)*
G04*
G04 Layer_Physical_Order=1*
G04 Layer_Color=255*
G04 Board_Origin=0|0*
%FSLAX44Y44*%
%MOMM*%
G71*
G04*
G04 #@! TF.SameCoordinates,38BCCB9D-3AAA-41B6-8228-12D48D1C517A*
G04*
G04*
G04 #@! TF.FilePolarity,Positive*
G04*
G01*
G75*
%ADD15R,0.8065X1.3082*%
%ADD16O,0.3000X2.1000*%
%ADD17R,0.2500X0.3500*%
%ADD18O,2.1000X0.3000*%
%ADD19R,0.3500X0.2500*%
%ADD20R,1.3082X0.8065*%
%ADD21R,0.6500X0.8500*%
G04:AMPARAMS|DCode=22|XSize=0.55mm|YSize=0.5mm|CornerRadius=0.0625mm|HoleSize=0mm|Usage=FLASHONLY|Rotation=90.000|XOffset=0mm|YOffset=0mm|HoleType=Round|Shape=RoundedRectangle|*
%AMROUNDEDRECTD22*
21,1,0.5500,0.3750,0,0,90.0*
21,1,0.4250,0.5000,0,0,90.0*
1,1,0.1250,0.1875,0.2125*
1,1,0.1250,0.1875,-0.2125*
1,1,0.1250,-0.1875,-0.2125*
1,1,0.1250,-0.1875,0.2125*
%
%ADD22ROUNDEDRECTD22*%
G04:AMPARAMS|DCode=23|XSize=1.3mm|YSize=0.76mm|CornerRadius=0.095mm|HoleSize=0mm|Usage=FLASHONLY|Rotation=90.000|XOffset=0mm|YOffset=0mm|HoleType=Round|Shape=RoundedRectangle|*
%AMROUNDEDRECTD23*
21,1,1.3000,0.5700,0,0,90.0*
21,1,1.1100,0.7600,0,0,90.0*
1,1,0.1900,0.2850,0.5550*
1,1,0.1900,0.2850,-0.5550*
1,1,0.1900,-0.2850,-0.5550*
1,1,0.1900,-0.2850,0.5550*
%
%ADD23ROUNDEDRECTD23*%
%ADD24R,1.2000X1.4000*%
%ADD25C,1.5500*%
%ADD26R,1.5500X1.5500*%
%ADD27C,1.5000*%
%ADD28R,1.5000X1.5000*%
%ADD29C,1.3000*%
%ADD30R,1.5500X1.5500*%
%ADD31R,1.3000X1.3000*%
%ADD32C,1.2700*%
%ADD33C,0.1524*%
D15*
X1677289Y1092200D02*
D03*
X1660271D02*
D03*
X585470Y648970D02*
D03*
X568453D02*
D03*
X649858D02*
D03*
X632841D02*
D03*
X531749Y534670D02*
D03*
X514731D02*
D03*
X705739Y648970D02*
D03*
X688721D02*
D03*
X761618D02*
D03*
X744602D02*
D03*
X587629Y534670D02*
D03*
X570611D02*
D03*
X694308D02*
D03*
X677291D02*
D03*
X1561718Y1094740D02*
D03*
X1544702D02*
D03*
X1404238D02*
D03*
X1387222D02*
D03*
X1295018D02*
D03*
X1278001D02*
D03*
D16*
X1054410Y916740D02*
D03*
X1009410Y764740D02*
D03*
X1004410D02*
D03*
X1039410D02*
D03*
X1014410D02*
D03*
X1039410Y916740D02*
D03*
X1054410Y764740D02*
D03*
X1034410Y916740D02*
D03*
X974410D02*
D03*
X969410Y764740D02*
D03*
X1024410D02*
D03*
X934410D02*
D03*
X939410D02*
D03*
X944410D02*
D03*
X949410D02*
D03*
X954410D02*
D03*
X959410D02*
D03*
X964410D02*
D03*
X974410D02*
D03*
X979410D02*
D03*
X984410D02*
D03*
X989410D02*
D03*
X994410D02*
D03*
X999410D02*
D03*
X1019410D02*
D03*
X1029410D02*
D03*
X1034410D02*
D03*
X1044410D02*
D03*
X1049410D02*
D03*
Y916740D02*
D03*
X1044410D02*
D03*
X1029410D02*
D03*
X1024410D02*
D03*
X1019410D02*
D03*
X1014410D02*
D03*
X1009410D02*
D03*
X1004410D02*
D03*
X999410D02*
D03*
X994410D02*
D03*
X989410D02*
D03*
X984410D02*
D03*
X979410D02*
D03*
X969410D02*
D03*
X964410D02*
D03*
X959410D02*
D03*
X954410D02*
D03*
X949410D02*
D03*
X944410D02*
D03*
X939410D02*
D03*
X934410D02*
D03*
D17*
X730250Y534880D02*
D03*
Y529380D02*
D03*
X455930Y534880D02*
D03*
Y529380D02*
D03*
X623570Y534880D02*
D03*
Y529380D02*
D03*
D18*
X1070410Y895740D02*
D03*
Y900740D02*
D03*
Y880740D02*
D03*
Y855740D02*
D03*
Y865740D02*
D03*
Y870740D02*
D03*
Y805740D02*
D03*
Y885740D02*
D03*
Y800740D02*
D03*
X918410Y875740D02*
D03*
Y795740D02*
D03*
Y790740D02*
D03*
Y900740D02*
D03*
Y895740D02*
D03*
Y890740D02*
D03*
Y885740D02*
D03*
Y880740D02*
D03*
Y870740D02*
D03*
Y865740D02*
D03*
Y860740D02*
D03*
Y855740D02*
D03*
Y850740D02*
D03*
Y845740D02*
D03*
Y840740D02*
D03*
Y835740D02*
D03*
Y830740D02*
D03*
Y825740D02*
D03*
Y820740D02*
D03*
Y815740D02*
D03*
Y810740D02*
D03*
Y805740D02*
D03*
Y800740D02*
D03*
Y785740D02*
D03*
Y780740D02*
D03*
X1070410D02*
D03*
Y785740D02*
D03*
Y790740D02*
D03*
Y795740D02*
D03*
Y810740D02*
D03*
Y815740D02*
D03*
Y820740D02*
D03*
Y825740D02*
D03*
Y830740D02*
D03*
Y835740D02*
D03*
Y840740D02*
D03*
Y845740D02*
D03*
Y850740D02*
D03*
Y860740D02*
D03*
Y875740D02*
D03*
Y890740D02*
D03*
D19*
X1065950Y487680D02*
D03*
X1060450D02*
D03*
X953980Y643890D02*
D03*
X948480D02*
D03*
X1101300D02*
D03*
X1095800D02*
D03*
X1374560Y650240D02*
D03*
X1369060D02*
D03*
X1224700Y642620D02*
D03*
X1219200D02*
D03*
D20*
X403860Y548259D02*
D03*
Y531241D02*
D03*
D21*
X976000Y972950D02*
D03*
X992500D02*
D03*
Y957450D02*
D03*
X976000D02*
D03*
D22*
X1499180Y1090930D02*
D03*
X1508180D02*
D03*
D23*
X1149350Y955040D02*
D03*
X1131450D02*
D03*
X1131570Y886460D02*
D03*
X1149470D02*
D03*
X857250Y966470D02*
D03*
X858530Y897890D02*
D03*
X839350Y966470D02*
D03*
X840630Y897890D02*
D03*
X859800Y822960D02*
D03*
X841900D02*
D03*
X844440Y756920D02*
D03*
X862340D02*
D03*
D24*
X1154430Y798830D02*
D03*
X1137430D02*
D03*
D25*
X407670Y928370D02*
D03*
Y953770D02*
D03*
Y979170D02*
D03*
Y1004570D02*
D03*
Y1055370D02*
D03*
Y1106170D02*
D03*
X509270D02*
D03*
Y1080770D02*
D03*
Y1055370D02*
D03*
Y1029970D02*
D03*
Y1004570D02*
D03*
Y979170D02*
D03*
Y953770D02*
D03*
X1620000Y547010D02*
D03*
X1485380Y545740D02*
D03*
X1239000Y547010D02*
D03*
X1303540Y545740D02*
D03*
X1368540D02*
D03*
X1303540Y500740D02*
D03*
X1174000Y547010D02*
D03*
Y502010D02*
D03*
X1420380Y545740D02*
D03*
Y500740D02*
D03*
X1555000Y547010D02*
D03*
Y502010D02*
D03*
D26*
X509270Y928370D02*
D03*
D27*
X1734790Y1113790D02*
D03*
X1626840Y1106170D02*
D03*
X1470630D02*
D03*
X1360140D02*
D03*
D28*
X1711990Y1113790D02*
D03*
X1604040Y1106170D02*
D03*
X1447830D02*
D03*
X1337340D02*
D03*
D29*
X1059180Y388620D02*
D03*
Y414020D02*
D03*
Y363220D02*
D03*
X982980Y388620D02*
D03*
Y337820D02*
D03*
Y363220D02*
D03*
X1059180Y337820D02*
D03*
D30*
X1620000Y502010D02*
D03*
X1485380Y500740D02*
D03*
X1239000Y502010D02*
D03*
X1368540Y500740D02*
D03*
D31*
X982980Y414020D02*
D03*
D32*
X1137920Y813816D02*
D03*
X1374648Y665226D02*
D03*
X1677289Y1061720D02*
D03*
X1054410Y937260D02*
D03*
X522986Y651256D02*
D03*
X1126998Y867664D02*
D03*
X943864Y713740D02*
D03*
X1088644Y848360D02*
D03*
X1128804Y851916D02*
D03*
X1280160Y800100D02*
D03*
X948944Y861060D02*
D03*
X861822Y929132D02*
D03*
X886460Y1106170D02*
D03*
X544322Y966470D02*
D03*
X761618Y874268D02*
D03*
X705739Y678180D02*
D03*
X1107694Y629412D02*
D03*
X922020Y594106D02*
D03*
X1014410Y956310D02*
D03*
X1555368Y1079754D02*
D03*
X1041908Y1086866D02*
D03*
X1415288D02*
D03*
X754126Y398018D02*
D03*
X725170Y668528D02*
D03*
X1049528Y895740D02*
D03*
X623570Y439928D02*
D03*
X626618Y902970D02*
D03*
X1052068Y877062D02*
D03*
X455930Y408178D02*
D03*
X632841Y635254D02*
D03*
X1004316Y690880D02*
D03*
X1012952Y743712D02*
D03*
X594106Y814324D02*
D03*
X975868Y846582D02*
D03*
X540512Y816864D02*
D03*
X968300Y862128D02*
D03*
X455168Y671576D02*
D03*
X1044956Y800650D02*
D03*
D33*
X1070410Y885740D02*
X1131570D01*
X1039410Y878670D02*
Y892810D01*
Y825510D02*
Y878670D01*
Y892810D02*
Y916740D01*
X862340Y751840D02*
X934410D01*
X401320Y548259D02*
Y640080D01*
X1224280Y546862D02*
X1239000D01*
X1374648Y650240D02*
Y665226D01*
X1097026Y640080D02*
Y643890D01*
X954024D02*
Y703580D01*
X992500Y973074D02*
X996950D01*
X934410Y751840D02*
Y764740D01*
Y751840D02*
X968140D01*
X1059180Y805740D02*
X1070410D01*
X1039410Y825510D02*
X1059180Y805740D01*
X918410Y875740D02*
X1036480D01*
X1039410Y878670D01*
X1054410Y723110D02*
Y764740D01*
Y485450D02*
Y723110D01*
X1070410Y860740D02*
X1090996D01*
X1137920Y813816D01*
X1374560Y650240D02*
X1374648D01*
X1677289Y1061720D02*
Y1092200D01*
X1054410Y916740D02*
Y937260D01*
X455930Y534880D02*
Y549148D01*
X522986Y616204D01*
Y651256D01*
X1118922Y875740D02*
X1126998Y867664D01*
X1070410Y875740D02*
X1118922D01*
X1101300Y643890D02*
X1138174D01*
X1162812Y668528D01*
Y831755D01*
X1160431Y834136D02*
X1162812Y831755D01*
X1127461Y834136D02*
X1160431D01*
X1095857Y865740D02*
X1127461Y834136D01*
X1070410Y865740D02*
X1095857D01*
X953980Y643890D02*
X954024D01*
X943864Y713740D02*
X954024Y703580D01*
X1088644Y848360D02*
Y849376D01*
X1082280Y855740D02*
X1088644Y849376D01*
X1070410Y855740D02*
X1082280D01*
X1070410Y870740D02*
X1109980D01*
X1128804Y851916D01*
X1280160Y692658D02*
Y800100D01*
X1230122Y642620D02*
X1280160Y692658D01*
X1224700Y642620D02*
X1230122D01*
X1239000Y546862D02*
Y547010D01*
X1219200Y551942D02*
X1224280Y546862D01*
X1219200Y551942D02*
Y642620D01*
X1369060Y598182D02*
Y650240D01*
X1368540Y597662D02*
X1369060Y598182D01*
X1368540Y545740D02*
Y597662D01*
X844440Y756920D02*
X862340D01*
X844440D02*
Y788670D01*
X841900Y791210D02*
X844440Y788670D01*
X841900Y791210D02*
Y822960D01*
X859800D01*
X862340Y751840D02*
Y756920D01*
X968140Y751840D02*
X969410Y764740D01*
X841900Y822960D02*
Y859790D01*
X840630Y861060D02*
X841900Y859790D01*
X840630Y861060D02*
Y897890D01*
X858530D01*
X934410Y764740D02*
Y787400D01*
X931070Y790740D02*
X934410Y787400D01*
X918410Y790740D02*
X931070D01*
X918410D02*
Y795740D01*
X840630Y897890D02*
Y931418D01*
X839350Y932698D02*
X840630Y931418D01*
X839350Y932698D02*
Y966470D01*
X857250D01*
X906780Y795740D02*
X918410D01*
X905510Y797010D02*
X906780Y795740D01*
X905510Y797010D02*
Y874470D01*
X906780Y875740D01*
X918410D01*
X1046480Y885740D02*
X1070410D01*
X1039410Y892810D02*
X1046480Y885740D01*
X1070410Y800740D02*
Y805740D01*
X1034410Y916740D02*
X1039410D01*
X1131570Y885740D02*
Y886460D01*
X1149470D01*
X1131450Y920870D02*
X1131570Y886460D01*
X1131450Y920870D02*
Y955040D01*
X1057590Y800740D02*
X1070410D01*
X1054410Y797560D02*
X1057590Y800740D01*
X1054410Y764740D02*
Y797560D01*
X1070410Y800740D02*
X1102868D01*
X1104778Y798830D01*
X1137430D01*
X1131450Y955040D02*
X1149350D01*
X1137430Y798830D02*
X1154430D01*
X1034410Y905510D02*
Y916740D01*
X1032632Y903732D02*
X1034410Y905510D01*
X976188Y903732D02*
X1032632D01*
X974410Y905510D02*
X976188Y903732D01*
X974410Y905510D02*
Y916740D01*
X1024410Y753110D02*
Y764740D01*
Y753110D02*
X1054410Y723110D01*
X982980Y414020D02*
X1054410Y485450D01*
X982980Y388620D02*
Y414020D01*
Y363220D02*
Y388620D01*
X974410Y916740D02*
Y936244D01*
X976000Y937834D01*
Y957450D01*
X982980Y337820D02*
Y363220D01*
X976000Y957450D02*
Y972950D01*
Y957450D02*
X992500D01*
X1620000Y502010D02*
X1652778Y534788D01*
Y1057432D01*
X1604040Y1106170D02*
X1652778Y1057432D01*
X1556542Y1058672D02*
X1604040Y1106170D01*
X1513840Y1058672D02*
X1556542D01*
X1508180Y1064332D02*
X1513840Y1058672D01*
X1508180Y1064332D02*
Y1090930D01*
X1499180D02*
X1508180D01*
X1499180D02*
Y1105620D01*
X1482120Y1122680D02*
X1499180Y1105620D01*
X1464340Y1122680D02*
X1482120D01*
X1447830Y1106170D02*
X1464340Y1122680D01*
X1387222Y1094740D02*
X1416461Y1065500D01*
X1429960D01*
X1470630Y1106170D01*
X1278001Y1066800D02*
Y1094740D01*
Y1066800D02*
X1283082Y1061720D01*
X1315690D01*
X1360140Y1106170D01*
X1544702Y1094740D02*
X1576705Y1126744D01*
X1606266D01*
X1626840Y1106170D01*
X1660271Y1092200D02*
Y1118617D01*
X1666240Y1124585D01*
X1723994D01*
X1734790Y1113790D01*
X939264Y870740D02*
X948944Y861060D01*
X918410Y870740D02*
X939264D01*
X509270Y979170D02*
X585470Y902970D01*
Y648970D02*
Y902970D01*
X509270Y1029970D02*
X519606D01*
X671322Y878254D01*
Y578104D02*
Y878254D01*
Y578104D02*
X694308Y555117D01*
Y534670D02*
Y555117D01*
X861822Y929132D02*
X895214Y895740D01*
X918410D01*
X401320Y548259D02*
X403860D01*
X397510Y643890D02*
X401320Y640080D01*
X397510Y643890D02*
Y1071880D01*
X406400Y1080770D01*
X509270D01*
X886460Y923544D02*
Y1106170D01*
Y923544D02*
X909264Y900740D01*
X918410D01*
X407670Y1055370D02*
X499110Y963930D01*
Y886460D02*
Y963930D01*
Y886460D02*
X558546Y827024D01*
Y579754D02*
Y827024D01*
Y579754D02*
X587629Y550672D01*
Y534670D02*
Y550672D01*
X544322Y966470D02*
X649858Y860934D01*
Y648970D02*
Y860934D01*
X761618Y648970D02*
Y874268D01*
X407670Y953770D02*
X531749Y829691D01*
Y534670D02*
Y829691D01*
X705739Y648970D02*
Y678180D01*
X1095800Y643890D02*
X1097026D01*
Y640080D02*
X1107694Y629412D01*
X1044410Y916740D02*
Y975868D01*
X1172680Y1104138D01*
X1293241D01*
X1295018Y1102360D01*
Y1094740D02*
Y1102360D01*
X922020Y594106D02*
Y636270D01*
X929640Y643890D01*
X948480D01*
X1014410Y916740D02*
Y956310D01*
X1555368Y1079754D02*
X1561718Y1086104D01*
Y1094740D01*
X1019410Y916740D02*
Y932542D01*
X1023112Y936244D01*
Y1068070D01*
X1041908Y1086866D01*
X1404238D02*
X1415288D01*
X1404238D02*
Y1094740D01*
X1059180Y414020D02*
Y486410D01*
X1060450Y487680D01*
X1065950D02*
X1074420D01*
X1165860Y579120D01*
Y954532D01*
X1153668Y966724D02*
X1165860Y954532D01*
X1090422Y966724D02*
X1153668D01*
X1083818Y960120D02*
X1090422Y966724D01*
X1083818Y902518D02*
Y960120D01*
X1082040Y900740D02*
X1083818Y902518D01*
X1070410Y900740D02*
X1082040D01*
X730250Y421894D02*
Y529380D01*
Y421894D02*
X754126Y398018D01*
X730250Y534880D02*
Y663448D01*
X725170Y668528D02*
X730250Y663448D01*
X1049528Y895740D02*
X1070410D01*
X623570Y439928D02*
Y529380D01*
Y534880D02*
Y605536D01*
X656336Y638302D01*
Y873252D01*
X626618Y902970D02*
X656336Y873252D01*
X1052068Y877062D02*
X1055746Y880740D01*
X1070410D01*
X455930Y408178D02*
Y529380D01*
X744602Y622509D02*
Y648970D01*
Y622509D02*
X751840Y615270D01*
X821772D01*
X953262Y746760D01*
X979330D01*
X984410Y751840D01*
Y764740D01*
X688721Y648970D02*
Y680720D01*
X694818Y686816D01*
X732028D01*
X738124Y680720D01*
Y609600D02*
Y680720D01*
Y609600D02*
X743966Y603758D01*
X817626D01*
X955548Y741680D01*
X984330D01*
X989410Y746760D01*
Y764740D01*
X632841Y635254D02*
Y648970D01*
X1004316Y690880D02*
Y754908D01*
X1004410Y755002D01*
Y764740D01*
X1009410Y747254D02*
Y764740D01*
Y747254D02*
X1012952Y743712D01*
X568453Y648970D02*
Y661415D01*
X677291Y527050D02*
Y534670D01*
Y527050D02*
X678561Y525780D01*
X714502D01*
X716534Y527812D01*
Y673100D01*
X720598Y677164D01*
X731520D01*
X735076Y673608D01*
Y601472D02*
Y673608D01*
Y601472D02*
X751332Y585216D01*
X956564D01*
X1021588Y650240D01*
Y750062D01*
X1019697Y751953D02*
X1021588Y750062D01*
X1015746Y751953D02*
X1019697D01*
X1014410Y753289D02*
X1015746Y751953D01*
X1014410Y753289D02*
Y764740D01*
X570611Y527050D02*
Y534670D01*
Y527050D02*
X571881Y525780D01*
X592836D01*
X594106Y527050D01*
Y814324D01*
X975868Y846582D02*
X1019410Y803040D01*
Y764740D02*
Y803040D01*
X514731Y523240D02*
Y534670D01*
Y523240D02*
X517525Y520446D01*
X533400D01*
X540512Y527558D01*
Y816864D01*
X968300Y862128D02*
X1021080D01*
X1029410Y853798D01*
Y764740D02*
Y853798D01*
X403860Y531241D02*
X414274D01*
X455168Y572136D01*
Y671576D01*
X1039410Y795104D02*
X1044956Y800650D01*
X1039410Y764740D02*
Y795104D01*
X992500Y972950D02*
Y973074D01*
X996950D02*
X998220Y971804D01*
Y933450D02*
Y971804D01*
X994410Y929640D02*
X998220Y933450D01*
X994410Y916740D02*
Y929640D01*
M02*
