G04*
G04 #@! TF.GenerationSoftware,Altium Limited,Altium Designer,26.6.0 (10)*
G04*
G04 Layer_Color=8388736*
G04 Board_Origin=0|0*
%FSLAX44Y44*%
%MOMM*%
G71*
G04*
G04 #@! TF.SameCoordinates,38BCCB9D-3AAA-41B6-8228-12D48D1C517A*
G04*
G04*
G04 #@! TF.FilePolarity,Negative*
G04*
G01*
G75*
%ADD15R,0.8065X1.3082*%
%ADD16O,0.3000X2.1000*%
%ADD17R,0.2500X0.3500*%
%ADD18O,2.1000X0.3000*%
%ADD19R,0.3500X0.2500*%
%ADD20R,1.3082X0.8065*%
%ADD21R,0.6500X0.8500*%
G04:AMPARAMS|DCode=22|XSize=0.55mm|YSize=0.5mm|CornerRadius=0.0625mm|HoleSize=0mm|Usage=FLASHONLY|Rotation=90.000|XOffset=0mm|YOffset=0mm|HoleType=Round|Shape=RoundedRectangle|*
%AMROUNDEDRECTD22*
21,1,0.5500,0.3750,0,0,90.0*
21,1,0.4250,0.5000,0,0,90.0*
1,1,0.1250,0.1875,0.2125*
1,1,0.1250,0.1875,-0.2125*
1,1,0.1250,-0.1875,-0.2125*
1,1,0.1250,-0.1875,0.2125*
%
%ADD22ROUNDEDRECTD22*%
G04:AMPARAMS|DCode=23|XSize=1.3mm|YSize=0.76mm|CornerRadius=0.095mm|HoleSize=0mm|Usage=FLASHONLY|Rotation=90.000|XOffset=0mm|YOffset=0mm|HoleType=Round|Shape=RoundedRectangle|*
%AMROUNDEDRECTD23*
21,1,1.3000,0.5700,0,0,90.0*
21,1,1.1100,0.7600,0,0,90.0*
1,1,0.1900,0.2850,0.5550*
1,1,0.1900,0.2850,-0.5550*
1,1,0.1900,-0.2850,-0.5550*
1,1,0.1900,-0.2850,0.5550*
%
%ADD23ROUNDEDRECTD23*%
%ADD24R,1.2000X1.4000*%
%ADD25C,1.5500*%
%ADD26R,1.5500X1.5500*%
%ADD27C,1.5000*%
%ADD28R,1.5000X1.5000*%
%ADD29C,1.3000*%
%ADD30R,1.5500X1.5500*%
%ADD31R,1.3000X1.3000*%
%ADD32C,1.2700*%
D15*
X1677289Y1092200D02*
D03*
X1660271D02*
D03*
X585470Y648970D02*
D03*
X568453D02*
D03*
X649858D02*
D03*
X632841D02*
D03*
X531749Y534670D02*
D03*
X514731D02*
D03*
X705739Y648970D02*
D03*
X688721D02*
D03*
X761618D02*
D03*
X744602D02*
D03*
X587629Y534670D02*
D03*
X570611D02*
D03*
X694308D02*
D03*
X677291D02*
D03*
X1561718Y1094740D02*
D03*
X1544702D02*
D03*
X1404238D02*
D03*
X1387222D02*
D03*
X1295018D02*
D03*
X1278001D02*
D03*
D16*
X1054410Y916740D02*
D03*
X1009410Y764740D02*
D03*
X1004410D02*
D03*
X1039410D02*
D03*
X1014410D02*
D03*
X1039410Y916740D02*
D03*
X1054410Y764740D02*
D03*
X1034410Y916740D02*
D03*
X974410D02*
D03*
X969410Y764740D02*
D03*
X1024410D02*
D03*
X934410D02*
D03*
X939410D02*
D03*
X944410D02*
D03*
X949410D02*
D03*
X954410D02*
D03*
X959410D02*
D03*
X964410D02*
D03*
X974410D02*
D03*
X979410D02*
D03*
X984410D02*
D03*
X989410D02*
D03*
X994410D02*
D03*
X999410D02*
D03*
X1019410D02*
D03*
X1029410D02*
D03*
X1034410D02*
D03*
X1044410D02*
D03*
X1049410D02*
D03*
Y916740D02*
D03*
X1044410D02*
D03*
X1029410D02*
D03*
X1024410D02*
D03*
X1019410D02*
D03*
X1014410D02*
D03*
X1009410D02*
D03*
X1004410D02*
D03*
X999410D02*
D03*
X994410D02*
D03*
X989410D02*
D03*
X984410D02*
D03*
X979410D02*
D03*
X969410D02*
D03*
X964410D02*
D03*
X959410D02*
D03*
X954410D02*
D03*
X949410D02*
D03*
X944410D02*
D03*
X939410D02*
D03*
X934410D02*
D03*
D17*
X730250Y534880D02*
D03*
Y529380D02*
D03*
X455930Y534880D02*
D03*
Y529380D02*
D03*
X623570Y534880D02*
D03*
Y529380D02*
D03*
D18*
X1070410Y895740D02*
D03*
Y900740D02*
D03*
Y880740D02*
D03*
Y855740D02*
D03*
Y865740D02*
D03*
Y870740D02*
D03*
Y805740D02*
D03*
Y885740D02*
D03*
Y800740D02*
D03*
X918410Y875740D02*
D03*
Y795740D02*
D03*
Y790740D02*
D03*
Y900740D02*
D03*
Y895740D02*
D03*
Y890740D02*
D03*
Y885740D02*
D03*
Y880740D02*
D03*
Y870740D02*
D03*
Y865740D02*
D03*
Y860740D02*
D03*
Y855740D02*
D03*
Y850740D02*
D03*
Y845740D02*
D03*
Y840740D02*
D03*
Y835740D02*
D03*
Y830740D02*
D03*
Y825740D02*
D03*
Y820740D02*
D03*
Y815740D02*
D03*
Y810740D02*
D03*
Y805740D02*
D03*
Y800740D02*
D03*
Y785740D02*
D03*
Y780740D02*
D03*
X1070410D02*
D03*
Y785740D02*
D03*
Y790740D02*
D03*
Y795740D02*
D03*
Y810740D02*
D03*
Y815740D02*
D03*
Y820740D02*
D03*
Y825740D02*
D03*
Y830740D02*
D03*
Y835740D02*
D03*
Y840740D02*
D03*
Y845740D02*
D03*
Y850740D02*
D03*
Y860740D02*
D03*
Y875740D02*
D03*
Y890740D02*
D03*
D19*
X1065950Y487680D02*
D03*
X1060450D02*
D03*
X953980Y643890D02*
D03*
X948480D02*
D03*
X1101300D02*
D03*
X1095800D02*
D03*
X1374560Y650240D02*
D03*
X1369060D02*
D03*
X1224700Y642620D02*
D03*
X1219200D02*
D03*
D20*
X403860Y548259D02*
D03*
Y531241D02*
D03*
D21*
X976000Y972950D02*
D03*
X992500D02*
D03*
Y957450D02*
D03*
X976000D02*
D03*
D22*
X1499180Y1090930D02*
D03*
X1508180D02*
D03*
D23*
X1149350Y955040D02*
D03*
X1131450D02*
D03*
X1131570Y886460D02*
D03*
X1149470D02*
D03*
X857250Y966470D02*
D03*
X858530Y897890D02*
D03*
X839350Y966470D02*
D03*
X840630Y897890D02*
D03*
X859800Y822960D02*
D03*
X841900D02*
D03*
X844440Y756920D02*
D03*
X862340D02*
D03*
D24*
X1154430Y798830D02*
D03*
X1137430D02*
D03*
D25*
X407670Y928370D02*
D03*
Y953770D02*
D03*
Y979170D02*
D03*
Y1004570D02*
D03*
Y1055370D02*
D03*
Y1106170D02*
D03*
X509270D02*
D03*
Y1080770D02*
D03*
Y1055370D02*
D03*
Y1029970D02*
D03*
Y1004570D02*
D03*
Y979170D02*
D03*
Y953770D02*
D03*
X1620000Y547010D02*
D03*
X1485380Y545740D02*
D03*
X1239000Y547010D02*
D03*
X1303540Y545740D02*
D03*
X1368540D02*
D03*
X1303540Y500740D02*
D03*
X1174000Y547010D02*
D03*
Y502010D02*
D03*
X1420380Y545740D02*
D03*
Y500740D02*
D03*
X1555000Y547010D02*
D03*
Y502010D02*
D03*
D26*
X509270Y928370D02*
D03*
D27*
X1734790Y1113790D02*
D03*
X1626840Y1106170D02*
D03*
X1470630D02*
D03*
X1360140D02*
D03*
D28*
X1711990Y1113790D02*
D03*
X1604040Y1106170D02*
D03*
X1447830D02*
D03*
X1337340D02*
D03*
D29*
X1059180Y388620D02*
D03*
Y414020D02*
D03*
Y363220D02*
D03*
X982980Y388620D02*
D03*
Y337820D02*
D03*
Y363220D02*
D03*
X1059180Y337820D02*
D03*
D30*
X1620000Y502010D02*
D03*
X1485380Y500740D02*
D03*
X1239000Y502010D02*
D03*
X1368540Y500740D02*
D03*
D31*
X982980Y414020D02*
D03*
D32*
X1137920Y813816D02*
D03*
X1374648Y665226D02*
D03*
X1677289Y1061720D02*
D03*
X1054410Y937260D02*
D03*
X522986Y651256D02*
D03*
X1126998Y867664D02*
D03*
X943864Y713740D02*
D03*
X1088644Y848360D02*
D03*
X1128804Y851916D02*
D03*
X1280160Y800100D02*
D03*
X948944Y861060D02*
D03*
X861822Y929132D02*
D03*
X886460Y1106170D02*
D03*
X544322Y966470D02*
D03*
X761618Y874268D02*
D03*
X705739Y678180D02*
D03*
X1107694Y629412D02*
D03*
X922020Y594106D02*
D03*
X1014410Y956310D02*
D03*
X1555368Y1079754D02*
D03*
X1041908Y1086866D02*
D03*
X1415288D02*
D03*
X754126Y398018D02*
D03*
X725170Y668528D02*
D03*
X1049528Y895740D02*
D03*
X623570Y439928D02*
D03*
X626618Y902970D02*
D03*
X1052068Y877062D02*
D03*
X455930Y408178D02*
D03*
X632841Y635254D02*
D03*
X1004316Y690880D02*
D03*
X1012952Y743712D02*
D03*
X594106Y814324D02*
D03*
X975868Y846582D02*
D03*
X540512Y816864D02*
D03*
X968300Y862128D02*
D03*
X455168Y671576D02*
D03*
X1044956Y800650D02*
D03*
M02*
