G04*
G04 #@! TF.GenerationSoftware,Altium Limited,Altium Designer,26.6.0 (10)*
G04*
G04 Layer_Physical_Order=2*
G04 Layer_Color=16711680*
G04 Board_Origin=0|0*
%FSLAX44Y44*%
%MOMM*%
G71*
G04*
G04 #@! TF.SameCoordinates,38BCCB9D-3AAA-41B6-8228-12D48D1C517A*
G04*
G04*
G04 #@! TF.FilePolarity,Positive*
G04*
G01*
G75*
%ADD14C,0.2540*%
%ADD25C,1.5500*%
%ADD26R,1.5500X1.5500*%
%ADD27C,1.5000*%
%ADD28R,1.5000X1.5000*%
%ADD29C,1.3000*%
%ADD30R,1.5500X1.5500*%
%ADD31R,1.3000X1.3000*%
%ADD32C,1.2700*%
%ADD33C,0.1524*%
D14*
X1137920Y813816D02*
X1226058D01*
X1374648Y665226D01*
X1552829Y937260D02*
X1677289Y1061720D01*
X1054410Y937260D02*
X1552829D01*
X522986Y651256D02*
X935228D01*
X1022096Y738124D01*
Y762762D01*
X1126998Y867664D01*
X943864Y713740D02*
X954024D01*
X955040Y744728D01*
X1058672Y848360D01*
X1088644D01*
X1128804Y851916D02*
X1228344D01*
X1280160Y800100D01*
X982980Y414020D02*
X1007872Y438912D01*
X1175902D01*
X1239000Y502010D01*
X1248292Y511302D01*
X1357978D01*
X1368540Y500740D01*
X1485380D02*
X1497212Y512572D01*
X1609438D01*
X1620000Y502010D01*
X1604040Y1106170D02*
X1614454Y1095756D01*
X1693956D01*
X1711990Y1113790D01*
X509270Y928370D02*
X543942Y893698D01*
X916306D01*
X948944Y861060D01*
X509270Y1055370D02*
X635508Y929132D01*
X861822D01*
X509270Y1106170D02*
X886460D01*
X407670Y1004570D02*
X445770Y966470D01*
X544322D01*
X407670Y979170D02*
X512572Y874268D01*
X761618D01*
X407670Y928370D02*
X657860Y678180D01*
X705739D01*
X1107694Y629412D02*
X1401708D01*
X1485380Y545740D01*
X1603850Y530860D02*
X1620000Y547010D01*
X985266Y530860D02*
X1603850D01*
X922020Y594106D02*
X985266Y530860D01*
X1014410Y956310D02*
X1431924D01*
X1555368Y1079754D01*
X1041908Y1086866D02*
X1415288D01*
X754126Y398018D02*
X1049782D01*
X1059180Y388620D01*
X725170Y668528D02*
X822316D01*
X1049528Y895740D01*
X623570Y439928D02*
X690880Y372618D01*
X1049782D01*
X1059180Y363220D01*
X626618Y902970D02*
X631190Y907542D01*
X1052830D01*
X1061212Y899160D01*
Y886206D02*
Y899160D01*
X1052068Y877062D02*
X1061212Y886206D01*
X455930Y408178D02*
X512318Y351790D01*
X1045210D01*
X1059180Y337820D01*
X632841Y635254D02*
X948690D01*
X1004316Y690880D01*
X924560Y655320D02*
X1012952Y743712D01*
X574548Y655320D02*
X924560D01*
X568453Y661415D02*
X574548Y655320D01*
X594106Y814324D02*
X626364Y846582D01*
X975868D01*
X540512Y816864D02*
X575564Y851916D01*
X958088D01*
X968300Y862128D01*
X455168Y671576D02*
X678942D01*
X691134Y659384D01*
X909066D01*
X1044956Y795274D01*
Y800650D01*
D25*
X407670Y928370D02*
D03*
Y953770D02*
D03*
Y979170D02*
D03*
Y1004570D02*
D03*
Y1055370D02*
D03*
Y1106170D02*
D03*
X509270D02*
D03*
Y1080770D02*
D03*
Y1055370D02*
D03*
Y1029970D02*
D03*
Y1004570D02*
D03*
Y979170D02*
D03*
Y953770D02*
D03*
X1620000Y547010D02*
D03*
X1485380Y545740D02*
D03*
X1239000Y547010D02*
D03*
X1303540Y545740D02*
D03*
X1368540D02*
D03*
X1303540Y500740D02*
D03*
X1174000Y547010D02*
D03*
Y502010D02*
D03*
X1420380Y545740D02*
D03*
Y500740D02*
D03*
X1555000Y547010D02*
D03*
Y502010D02*
D03*
D26*
X509270Y928370D02*
D03*
D27*
X1734790Y1113790D02*
D03*
X1626840Y1106170D02*
D03*
X1470630D02*
D03*
X1360140D02*
D03*
D28*
X1711990Y1113790D02*
D03*
X1604040Y1106170D02*
D03*
X1447830D02*
D03*
X1337340D02*
D03*
D29*
X1059180Y388620D02*
D03*
Y414020D02*
D03*
Y363220D02*
D03*
X982980Y388620D02*
D03*
Y337820D02*
D03*
Y363220D02*
D03*
X1059180Y337820D02*
D03*
D30*
X1620000Y502010D02*
D03*
X1485380Y500740D02*
D03*
X1239000Y502010D02*
D03*
X1368540Y500740D02*
D03*
D31*
X982980Y414020D02*
D03*
D32*
X1137920Y813816D02*
D03*
X1374648Y665226D02*
D03*
X1677289Y1061720D02*
D03*
X1054410Y937260D02*
D03*
X522986Y651256D02*
D03*
X1126998Y867664D02*
D03*
X943864Y713740D02*
D03*
X1088644Y848360D02*
D03*
X1128804Y851916D02*
D03*
X1280160Y800100D02*
D03*
X948944Y861060D02*
D03*
X861822Y929132D02*
D03*
X886460Y1106170D02*
D03*
X544322Y966470D02*
D03*
X761618Y874268D02*
D03*
X705739Y678180D02*
D03*
X1107694Y629412D02*
D03*
X922020Y594106D02*
D03*
X1014410Y956310D02*
D03*
X1555368Y1079754D02*
D03*
X1041908Y1086866D02*
D03*
X1415288D02*
D03*
X754126Y398018D02*
D03*
X725170Y668528D02*
D03*
X1049528Y895740D02*
D03*
X623570Y439928D02*
D03*
X626618Y902970D02*
D03*
X1052068Y877062D02*
D03*
X455930Y408178D02*
D03*
X632841Y635254D02*
D03*
X1004316Y690880D02*
D03*
X1012952Y743712D02*
D03*
X594106Y814324D02*
D03*
X975868Y846582D02*
D03*
X540512Y816864D02*
D03*
X968300Y862128D02*
D03*
X455168Y671576D02*
D03*
X1044956Y800650D02*
D03*
D33*
X1368540Y500740D02*
X1389486D01*
X1399540Y510794D01*
X1447652D01*
X1457706Y500740D01*
X1485380D01*
X1408938Y1106170D02*
X1447830D01*
X1399032Y1096264D02*
X1408938Y1106170D01*
X1353820Y1096264D02*
X1399032D01*
X1343914Y1106170D02*
X1353820Y1096264D01*
X1337340Y1106170D02*
X1343914D01*
M02*
